<mxfile host="app.diagrams.net" modified="2023-04-21T05:29:48.529Z" agent="Mozilla/5.0 (Windows NT 10.0; Win64; x64) AppleWebKit/537.36 (KHTML, like Gecko) Chrome/112.0.0.0 Safari/537.36" etag="uM91WSm076aX0UpOQ1kj" version="21.2.1" type="device">
  <diagram id="x_SmmznLPdM73Cppy9Eb" name="페이지-1">
    <mxGraphModel dx="1247" dy="657" grid="1" gridSize="10" guides="1" tooltips="1" connect="1" arrows="1" fold="1" page="1" pageScale="1" pageWidth="4681" pageHeight="3300" math="0" shadow="0">
      <root>
        <mxCell id="0" />
        <mxCell id="1" parent="0" />
        <mxCell id="uGvQy3KT7mPE_ZV-1JBl-62" style="rounded=0;orthogonalLoop=1;jettySize=auto;html=1;entryX=0.5;entryY=0;entryDx=0;entryDy=0;exitX=0.5;exitY=1;exitDx=0;exitDy=0;" edge="1" parent="1" source="uGvQy3KT7mPE_ZV-1JBl-49" target="uGvQy3KT7mPE_ZV-1JBl-51">
          <mxGeometry relative="1" as="geometry" />
        </mxCell>
        <mxCell id="uGvQy3KT7mPE_ZV-1JBl-63" style="rounded=0;orthogonalLoop=1;jettySize=auto;html=1;entryX=0.5;entryY=0;entryDx=0;entryDy=0;exitX=0.5;exitY=1;exitDx=0;exitDy=0;" edge="1" parent="1" source="uGvQy3KT7mPE_ZV-1JBl-49" target="uGvQy3KT7mPE_ZV-1JBl-50">
          <mxGeometry relative="1" as="geometry" />
        </mxCell>
        <mxCell id="uGvQy3KT7mPE_ZV-1JBl-89" value="" style="rounded=0;orthogonalLoop=1;jettySize=auto;html=1;entryX=0;entryY=1;entryDx=0;entryDy=0;" edge="1" parent="1" source="uGvQy3KT7mPE_ZV-1JBl-49" target="uGvQy3KT7mPE_ZV-1JBl-88">
          <mxGeometry relative="1" as="geometry" />
        </mxCell>
        <mxCell id="uGvQy3KT7mPE_ZV-1JBl-49" value="학생" style="rounded=1;arcSize=10;whiteSpace=wrap;html=1;align=center;" vertex="1" parent="1">
          <mxGeometry x="520" y="220" width="220" height="60" as="geometry" />
        </mxCell>
        <mxCell id="uGvQy3KT7mPE_ZV-1JBl-50" value="이름" style="ellipse;whiteSpace=wrap;html=1;align=center;" vertex="1" parent="1">
          <mxGeometry x="400" y="390" width="100" height="40" as="geometry" />
        </mxCell>
        <mxCell id="uGvQy3KT7mPE_ZV-1JBl-51" value="학번" style="ellipse;whiteSpace=wrap;html=1;align=center;fontStyle=4;" vertex="1" parent="1">
          <mxGeometry x="280" y="390" width="100" height="40" as="geometry" />
        </mxCell>
        <mxCell id="uGvQy3KT7mPE_ZV-1JBl-58" value="학과" style="ellipse;whiteSpace=wrap;html=1;align=center;" vertex="1" parent="1">
          <mxGeometry x="520" y="390" width="100" height="40" as="geometry" />
        </mxCell>
        <mxCell id="uGvQy3KT7mPE_ZV-1JBl-59" value="학년" style="ellipse;whiteSpace=wrap;html=1;align=center;" vertex="1" parent="1">
          <mxGeometry x="640" y="390" width="100" height="40" as="geometry" />
        </mxCell>
        <mxCell id="uGvQy3KT7mPE_ZV-1JBl-60" value="전화번호" style="ellipse;whiteSpace=wrap;html=1;align=center;" vertex="1" parent="1">
          <mxGeometry x="760" y="390" width="100" height="40" as="geometry" />
        </mxCell>
        <mxCell id="uGvQy3KT7mPE_ZV-1JBl-61" value="주소" style="ellipse;whiteSpace=wrap;html=1;align=center;" vertex="1" parent="1">
          <mxGeometry x="880" y="390" width="100" height="40" as="geometry" />
        </mxCell>
        <mxCell id="uGvQy3KT7mPE_ZV-1JBl-64" style="rounded=0;orthogonalLoop=1;jettySize=auto;html=1;entryX=0.5;entryY=0;entryDx=0;entryDy=0;exitX=0.5;exitY=1;exitDx=0;exitDy=0;" edge="1" parent="1" source="uGvQy3KT7mPE_ZV-1JBl-49" target="uGvQy3KT7mPE_ZV-1JBl-58">
          <mxGeometry relative="1" as="geometry">
            <mxPoint x="626" y="320" as="sourcePoint" />
            <mxPoint x="500" y="390" as="targetPoint" />
          </mxGeometry>
        </mxCell>
        <mxCell id="uGvQy3KT7mPE_ZV-1JBl-69" style="rounded=0;orthogonalLoop=1;jettySize=auto;html=1;entryX=0.5;entryY=0;entryDx=0;entryDy=0;exitX=0.5;exitY=1;exitDx=0;exitDy=0;" edge="1" parent="1" source="uGvQy3KT7mPE_ZV-1JBl-49" target="uGvQy3KT7mPE_ZV-1JBl-59">
          <mxGeometry relative="1" as="geometry">
            <mxPoint x="630" y="230" as="sourcePoint" />
            <mxPoint x="570" y="410" as="targetPoint" />
          </mxGeometry>
        </mxCell>
        <mxCell id="uGvQy3KT7mPE_ZV-1JBl-70" style="rounded=0;orthogonalLoop=1;jettySize=auto;html=1;entryX=0.5;entryY=0;entryDx=0;entryDy=0;exitX=0.5;exitY=1;exitDx=0;exitDy=0;" edge="1" parent="1" source="uGvQy3KT7mPE_ZV-1JBl-49" target="uGvQy3KT7mPE_ZV-1JBl-60">
          <mxGeometry relative="1" as="geometry">
            <mxPoint x="640" y="240" as="sourcePoint" />
            <mxPoint x="580" y="420" as="targetPoint" />
          </mxGeometry>
        </mxCell>
        <mxCell id="uGvQy3KT7mPE_ZV-1JBl-71" style="rounded=0;orthogonalLoop=1;jettySize=auto;html=1;exitX=0.5;exitY=1;exitDx=0;exitDy=0;" edge="1" parent="1" source="uGvQy3KT7mPE_ZV-1JBl-49">
          <mxGeometry relative="1" as="geometry">
            <mxPoint x="840" y="180" as="sourcePoint" />
            <mxPoint x="930" y="390" as="targetPoint" />
          </mxGeometry>
        </mxCell>
        <mxCell id="uGvQy3KT7mPE_ZV-1JBl-75" style="rounded=0;orthogonalLoop=1;jettySize=auto;html=1;entryX=0.5;entryY=0;entryDx=0;entryDy=0;exitX=0.5;exitY=1;exitDx=0;exitDy=0;" edge="1" source="uGvQy3KT7mPE_ZV-1JBl-77" target="uGvQy3KT7mPE_ZV-1JBl-79" parent="1">
          <mxGeometry relative="1" as="geometry" />
        </mxCell>
        <mxCell id="uGvQy3KT7mPE_ZV-1JBl-76" style="rounded=0;orthogonalLoop=1;jettySize=auto;html=1;entryX=0.5;entryY=0;entryDx=0;entryDy=0;exitX=0.5;exitY=1;exitDx=0;exitDy=0;" edge="1" source="uGvQy3KT7mPE_ZV-1JBl-77" target="uGvQy3KT7mPE_ZV-1JBl-78" parent="1">
          <mxGeometry relative="1" as="geometry" />
        </mxCell>
        <mxCell id="uGvQy3KT7mPE_ZV-1JBl-91" style="rounded=0;orthogonalLoop=1;jettySize=auto;html=1;exitX=0.5;exitY=0;exitDx=0;exitDy=0;entryX=1;entryY=1;entryDx=0;entryDy=0;" edge="1" parent="1" source="uGvQy3KT7mPE_ZV-1JBl-77" target="uGvQy3KT7mPE_ZV-1JBl-88">
          <mxGeometry relative="1" as="geometry" />
        </mxCell>
        <mxCell id="uGvQy3KT7mPE_ZV-1JBl-77" value="과목" style="rounded=1;arcSize=10;whiteSpace=wrap;html=1;align=center;" vertex="1" parent="1">
          <mxGeometry x="1240" y="220" width="220" height="60" as="geometry" />
        </mxCell>
        <mxCell id="uGvQy3KT7mPE_ZV-1JBl-78" value="과목명" style="ellipse;whiteSpace=wrap;html=1;align=center;" vertex="1" parent="1">
          <mxGeometry x="1120" y="390" width="100" height="40" as="geometry" />
        </mxCell>
        <mxCell id="uGvQy3KT7mPE_ZV-1JBl-79" value="과목코드" style="ellipse;whiteSpace=wrap;html=1;align=center;fontStyle=4;" vertex="1" parent="1">
          <mxGeometry x="1000" y="390" width="100" height="40" as="geometry" />
        </mxCell>
        <mxCell id="uGvQy3KT7mPE_ZV-1JBl-80" value="담당교수" style="ellipse;whiteSpace=wrap;html=1;align=center;" vertex="1" parent="1">
          <mxGeometry x="1240" y="390" width="100" height="40" as="geometry" />
        </mxCell>
        <mxCell id="uGvQy3KT7mPE_ZV-1JBl-81" value="강의실" style="ellipse;whiteSpace=wrap;html=1;align=center;" vertex="1" parent="1">
          <mxGeometry x="1360" y="390" width="100" height="40" as="geometry" />
        </mxCell>
        <mxCell id="uGvQy3KT7mPE_ZV-1JBl-82" value="연락처" style="ellipse;whiteSpace=wrap;html=1;align=center;" vertex="1" parent="1">
          <mxGeometry x="1480" y="390" width="100" height="40" as="geometry" />
        </mxCell>
        <mxCell id="uGvQy3KT7mPE_ZV-1JBl-83" value="조교" style="ellipse;whiteSpace=wrap;html=1;align=center;" vertex="1" parent="1">
          <mxGeometry x="1600" y="390" width="100" height="40" as="geometry" />
        </mxCell>
        <mxCell id="uGvQy3KT7mPE_ZV-1JBl-84" style="rounded=0;orthogonalLoop=1;jettySize=auto;html=1;entryX=0.5;entryY=0;entryDx=0;entryDy=0;exitX=0.5;exitY=1;exitDx=0;exitDy=0;" edge="1" source="uGvQy3KT7mPE_ZV-1JBl-77" target="uGvQy3KT7mPE_ZV-1JBl-80" parent="1">
          <mxGeometry relative="1" as="geometry">
            <mxPoint x="1346" y="320" as="sourcePoint" />
            <mxPoint x="1220" y="390" as="targetPoint" />
          </mxGeometry>
        </mxCell>
        <mxCell id="uGvQy3KT7mPE_ZV-1JBl-85" style="rounded=0;orthogonalLoop=1;jettySize=auto;html=1;entryX=0.5;entryY=0;entryDx=0;entryDy=0;exitX=0.5;exitY=1;exitDx=0;exitDy=0;" edge="1" source="uGvQy3KT7mPE_ZV-1JBl-77" target="uGvQy3KT7mPE_ZV-1JBl-81" parent="1">
          <mxGeometry relative="1" as="geometry">
            <mxPoint x="1350" y="230" as="sourcePoint" />
            <mxPoint x="1290" y="410" as="targetPoint" />
          </mxGeometry>
        </mxCell>
        <mxCell id="uGvQy3KT7mPE_ZV-1JBl-86" style="rounded=0;orthogonalLoop=1;jettySize=auto;html=1;entryX=0.5;entryY=0;entryDx=0;entryDy=0;exitX=0.5;exitY=1;exitDx=0;exitDy=0;" edge="1" source="uGvQy3KT7mPE_ZV-1JBl-77" target="uGvQy3KT7mPE_ZV-1JBl-82" parent="1">
          <mxGeometry relative="1" as="geometry">
            <mxPoint x="1360" y="240" as="sourcePoint" />
            <mxPoint x="1300" y="420" as="targetPoint" />
          </mxGeometry>
        </mxCell>
        <mxCell id="uGvQy3KT7mPE_ZV-1JBl-87" style="rounded=0;orthogonalLoop=1;jettySize=auto;html=1;exitX=0.5;exitY=1;exitDx=0;exitDy=0;" edge="1" source="uGvQy3KT7mPE_ZV-1JBl-77" parent="1">
          <mxGeometry relative="1" as="geometry">
            <mxPoint x="1560" y="180" as="sourcePoint" />
            <mxPoint x="1650" y="390" as="targetPoint" />
          </mxGeometry>
        </mxCell>
        <mxCell id="uGvQy3KT7mPE_ZV-1JBl-88" value="수강신청" style="rhombus;whiteSpace=wrap;html=1;rounded=1;arcSize=10;" vertex="1" parent="1">
          <mxGeometry x="890" y="80" width="200" height="120" as="geometry" />
        </mxCell>
      </root>
    </mxGraphModel>
  </diagram>
</mxfile>
